<!--?xml version="1.0" standalone="no"?-->
              <svg id="sw-js-blob-svg" viewBox="0 0 100 100" xmlns="http://www.w3.org/2000/svg" version="1.1">
                    <defs> 
                        <linearGradient id="sw-gradient" x1="0" x2="1" y1="1" y2="0">
                            <stop id="stop1" stop-color="rgba(255, 255, 255, 1)" offset="0%"></stop>
                            <stop id="stop2" stop-color="rgba(198.107, 188.815, 246.421, 1)" offset="100%"></stop>
                        </linearGradient>
                    </defs>
                <path fill="url(#sw-gradient)" d="M22.1,-39.1C28.5,-34.6,33.4,-28.3,35.8,-21.5C38.3,-14.7,38.3,-7.4,37.6,-0.4C36.9,6.5,35.5,13.1,32.8,19.6C30.2,26.2,26.4,32.7,20.8,37.4C15.1,42.1,7.5,45,0.2,44.7C-7.2,44.4,-14.4,40.9,-19.4,35.8C-24.4,30.7,-27.1,24,-31.3,17.7C-35.6,11.5,-41.3,5.7,-43.2,-1.1C-45.1,-7.9,-43.1,-15.8,-39.1,-22.5C-35.1,-29.1,-29,-34.5,-22.2,-38.7C-15.3,-43,-7.7,-46.2,0.1,-46.3C7.9,-46.5,15.7,-43.7,22.1,-39.1Z" width="100%" height="100%" transform="translate(50 50)" stroke-width="0" style="transition: all 0.3s ease 0s;"></path>
              </svg>